<svg width="36" height="35" viewBox="0 0 36 35" fill="none" xmlns="http://www.w3.org/2000/svg">
<path d="M33.047 35L20.797 22.75C19.8248 23.5278 18.7067 24.1435 17.4428 24.5972C16.1789 25.0509 14.834 25.2778 13.4081 25.2778C9.87571 25.2778 6.88645 24.0541 4.44034 21.6067C1.99423 19.1593 0.770522 16.17 0.769226 12.6389C0.769226 9.10648 1.99293 6.11722 4.44034 3.67111C6.88774 1.225 9.877 0.0012963 13.4081 0C16.9405 0 19.9298 1.2237 22.3759 3.67111C24.822 6.11852 26.0457 9.10778 26.047 12.6389C26.047 14.0648 25.8202 15.4097 25.3664 16.6736C24.9127 17.9375 24.297 19.0556 23.5192 20.0278L35.7692 32.2778L33.047 35ZM13.4081 21.3889C15.8387 21.3889 17.905 20.5379 19.607 18.8358C21.309 17.1338 22.1594 15.0681 22.1581 12.6389C22.1581 10.2083 21.3071 8.14204 19.6051 6.44C17.903 4.73796 15.8374 3.88759 13.4081 3.88889C10.9776 3.88889 8.91126 4.73991 7.20923 6.44194C5.50719 8.14398 4.65682 10.2096 4.65811 12.6389C4.65811 15.0694 5.50913 17.1357 7.21117 18.8378C8.91321 20.5398 10.9789 21.3902 13.4081 21.3889Z" fill="#377006"/>
</svg>
