<svg width="36" height="35" viewBox="0 0 36 35" fill="none" xmlns="http://www.w3.org/2000/svg">
<path d="M33.0471 35L20.7971 22.75C19.8248 23.5278 18.7068 24.1435 17.4429 24.5972C16.179 25.0509 14.8341 25.2778 13.4082 25.2778C9.87577 25.2778 6.88651 24.0541 4.4404 21.6067C1.99429 19.1593 0.770583 16.17 0.769287 12.6389C0.769287 9.10648 1.99299 6.11722 4.4404 3.67111C6.88781 1.225 9.87706 0.0012963 13.4082 0C16.9406 0 19.9298 1.2237 22.376 3.67111C24.8221 6.11852 26.0458 9.10778 26.0471 12.6389C26.0471 14.0648 25.8202 15.4097 25.3665 16.6736C24.9128 17.9375 24.2971 19.0556 23.5193 20.0278L35.7693 32.2778L33.0471 35ZM13.4082 21.3889C15.8387 21.3889 17.905 20.5379 19.6071 18.8358C21.3091 17.1338 22.1595 15.0681 22.1582 12.6389C22.1582 10.2083 21.3072 8.14204 19.6051 6.44C17.9031 4.73796 15.8374 3.88759 13.4082 3.88889C10.9776 3.88889 8.91132 4.73991 7.20929 6.44194C5.50725 8.14398 4.65688 10.2096 4.65818 12.6389C4.65818 15.0694 5.50919 17.1357 7.21123 18.8378C8.91327 20.5398 10.9789 21.3902 13.4082 21.3889Z" fill="#377006"/>
</svg>
